<svg width="504" height="179" viewBox="0 0 504 179" fill="none" xmlns="http://www.w3.org/2000/svg">
<path d="M503.001 160.27C501.305 159.098 499.59 157.955 497.879 156.81C496.531 155.542 495.431 154.202 494.587 152.477C493.913 146.774 493.738 141.054 494.283 135.302C494.932 128.41 494.717 128.593 489.417 125.021C484.735 121.865 480.936 117.704 477.297 113.36C477.58 112.607 477.882 111.859 478.219 111.125C479.831 107.64 481.872 104.367 483.265 100.779C484.462 97.6996 485.16 94.2892 484.629 90.9856C484.109 87.745 482.265 85.0907 479.804 83.0363C476.038 79.8916 471.615 77.8371 467.113 76.01C467.539 72.4435 467.773 68.8112 468.291 65.3077C469.021 60.3578 468.992 52.1756 472.283 48.4009C472.453 48.2037 472.143 48.0886 472 48.0776C467.574 47.7243 467.037 53.5371 466.304 56.9885C466.269 56.9913 466.221 56.9885 466.191 56.9912C463.991 57.3117 461.789 57.5583 459.589 57.7637C459.511 55.9914 459.33 54.2301 458.813 52.5427C458.635 51.9592 457.185 51.9099 457.047 52.5427C456.656 54.3314 456.581 56.1667 456.554 58.0075C455.98 58.0486 455.408 58.1116 454.834 58.1445C453.316 57.9281 451.675 57.9665 450.701 57.9583C448.704 57.9391 445.1 57.5419 442.477 58.3335C434.031 58.0815 425.621 57.0789 417.288 55.3477C414.811 54.4849 412.361 53.5179 409.921 52.4551C408.482 48.7625 406.746 45.1905 404.233 42.3772C404.09 42.2156 403.508 42.1828 403.527 42.5033C403.686 45.1302 404.43 47.7572 405.344 50.3622C405.077 50.2335 404.807 50.113 404.54 49.9842C404.468 49.9486 404.212 50.0171 404.325 50.1267C404.77 50.5567 405.231 50.9512 405.689 51.3511C406.754 54.2492 407.98 57.1118 408.829 59.9086C409.061 60.6701 409.255 61.4343 409.465 62.2013C409.145 61.7521 408.819 61.3001 408.519 60.8591C406.587 58.0295 404.559 52.9865 400.551 53.7644C400.076 53.8576 400.071 54.3451 400.551 54.4355C403.034 54.9012 404.266 58.8266 405.457 60.8153C406.689 62.8698 407.942 64.9078 409.209 66.9403C410.075 68.3291 410.916 69.7864 411.784 71.2355C411.937 71.871 412.118 72.501 412.266 73.1365C409.239 73.8652 406.163 74.6678 403.486 76.3306C401.036 77.8536 399.216 80.0915 397.416 82.3185C395.359 84.8633 393.138 87.6958 389.873 88.608C385.789 89.7502 381.794 87.2904 379.179 84.2635C376.416 81.064 375.004 76.9194 373.281 73.1091C372.421 71.2026 371.435 69.4001 370.327 67.6306C369.453 66.2363 368.523 64.7653 368.159 63.1738C368.343 62.8232 368.55 62.4807 368.785 62.1548C369.553 61.0892 371.092 60.3414 371.3 58.9635C371.343 58.6814 371.192 58.4842 370.914 58.4485C369.443 58.2678 368.292 59.0183 367.116 59.8373C366.445 60.3057 365.744 60.7688 365.07 61.2646C362.892 62.059 360.692 62.7958 358.439 63.33C356.73 63.7354 354.991 64.0175 353.236 64.1052C351.702 64.1819 350.158 64.0421 348.629 64.2174C345.667 64.5571 343.219 66.576 342.071 69.2221C341.038 70.3014 340.157 71.6546 340.256 73.005C336.671 74.2432 333.059 75.4046 329.417 76.4729C327.538 72.9502 325.228 69.696 322.16 67.0855C319.211 64.5736 315.655 62.9738 312.954 60.1387C312.787 59.9634 312.65 59.7634 312.488 59.5854C311.917 51.562 311.82 43.4483 310.496 35.5811C310.41 35.0744 309.313 34.9237 309.172 35.4633C308.87 36.6302 308.628 37.8191 308.423 39.0162C308.833 33.7157 309.38 28.4371 309.296 23.364C309.291 22.9722 308.563 23.0024 308.428 23.2873C307.124 25.9964 306.245 28.9329 305.63 31.9516C304.786 30.8915 303.883 30.7271 301.886 30.8613C301.517 30.886 301.139 30.949 300.77 30.9874C300.368 30.1574 299.918 29.3493 299.363 28.5987C299.282 28.4864 298.94 28.4727 298.902 28.6398C298.697 29.4999 298.619 30.3792 298.592 31.264C291.89 32.3543 284.784 35.1702 278.458 36.9069C272.171 38.6299 265.634 40.1913 259.458 42.4676C257.954 38.3669 256.501 34.2169 254.878 30.0286C254.717 29.6095 253.684 29.615 253.679 30.1354C253.63 34.7265 254.504 39.3531 255.876 43.8838C255.725 43.9496 255.569 43.9989 255.42 44.0647C254.091 41.9308 252.687 39.8571 251.018 38.041C250.91 37.9232 250.377 37.8793 250.431 38.1451C251.401 42.9525 253.943 47.4477 256.094 51.8058C257.086 53.8137 258.024 56.0435 259.081 58.2048C255.42 59.2156 251.776 60.2702 248.409 62.1137C240.527 66.4363 233.229 77.1523 223.126 74.9719C217.549 73.7666 216.662 68.2086 214.117 63.9518C212.168 60.6893 204.66 52.959 210.893 49.8362C212.386 49.0884 210.683 47.8886 209.61 48.3872C204.593 50.7211 199.417 52.603 194.031 53.8493C189.856 54.8163 185.157 54.6875 181.114 56.0352C179.033 56.7283 176.968 58.1636 177.172 60.6646C177.305 62.2698 178.148 63.2231 179.369 63.6531C179.192 64.3489 179.014 65.0474 178.838 65.7432C178.666 66.4226 179.431 66.7623 179.992 66.7431C180.631 66.7212 181.256 66.7622 181.89 66.7677C177.898 68.5482 173.833 70.0001 169.703 71.0821C163.346 66.1733 155.645 63.4998 148.299 60.5605C144.148 58.9005 140.312 56.7475 137.759 52.9043C135.718 49.8308 134.227 46.1903 131.087 44.0591C127.461 41.5993 123.299 41.802 119.39 43.1935C119.385 43.1689 119.377 43.1443 119.372 43.1196C119.318 36.9234 118.301 30.7901 115.775 24.9965C114.816 22.7942 113.813 20.8165 112.915 18.8387C112.921 18.7346 112.934 18.6332 112.929 18.5209C112.818 16.7404 112.347 14.0477 112.36 12.0206C113.007 10.9989 113.368 9.79634 113.331 8.49245C113.592 7.90077 113.756 7.27074 113.568 6.23803C112.818 2.11817 108.688 -0.243096 104.839 0.0198741C103.529 0.11027 102.494 1.06353 102.464 2.43316C102.467 2.83036 102.426 3.21936 102.394 3.61107C100.189 5.9148 99.5582 9.52515 101.159 12.1877C101.095 12.6096 101 13.0479 101.038 13.4505C101.13 14.3819 101.443 15.3187 101.642 16.2309C101.858 17.2143 102.044 18.1621 102.281 19.0962C101.143 24.6158 100.871 30.3491 100.202 36.0002C100.027 37.4767 99.7954 38.9449 99.5312 40.4077C98.1969 41.5336 96.9002 42.6429 95.3097 43.5168C93.2961 44.6262 91.8297 45.1302 90.4953 47.0696C90.1853 47.5189 90.3174 48.2393 90.6813 48.6091C84.1766 51.4771 78.583 56.4735 73.1674 61.007C66.5602 66.5403 60.2038 72.4298 53.3567 77.6646C51.3539 76.6209 49.5477 75.0869 48.0948 73.405C44.7279 69.5042 43.0026 64.4503 40.9054 59.8045C39.8568 57.4788 38.6545 55.282 37.3039 53.1262C36.2392 51.4251 35.1069 49.6336 34.6621 47.6914C34.8859 47.2641 35.1366 46.8477 35.425 46.4505C36.3631 45.1494 38.2393 44.2399 38.4927 42.5608C38.5439 42.2156 38.3633 41.9773 38.0237 41.9335C36.2311 41.7116 34.8239 42.6293 33.3952 43.6264C32.5757 44.1989 31.7212 44.7604 30.9017 45.3658C28.2464 46.3355 25.5642 47.234 22.8172 47.8832C20.7335 48.3763 18.612 48.7214 16.4743 48.8282C14.6035 48.9214 12.7219 48.7515 10.8565 48.9652C7.24429 49.3788 4.26014 51.8414 2.85838 55.0683C1.27601 56.7255 -0.0502281 58.9115 0.982221 60.9522C1.54292 62.0644 2.7128 62.2232 3.7749 61.8452C4.37065 61.8836 4.99607 61.8069 5.57834 61.6864C6.70514 61.4508 7.78881 61.2344 8.86708 61.0892C9.4197 66.1377 8.38721 71.0026 10.8484 75.7252C13.2907 80.4093 17.0243 85.2687 20.4802 89.2489C22.4857 91.5608 24.672 92.6949 26.9525 93.051C30.4192 94.8452 34.2524 95.7164 38.1773 96.0588C39.4254 97.9653 41.0051 99.6226 43.0241 100.921C46.5232 103.164 50.6665 104.181 54.7424 104.589C59.4544 105.06 64.1341 104.142 68.8246 104.512C69.5902 104.572 70.3262 104.696 71.0351 104.874C70.3531 111.267 69.2479 117.57 67.5011 123.766C66.6223 126.889 65.5575 129.935 64.4576 132.981C64.2231 133.118 64.0344 133.307 63.9347 133.559C63.719 134.083 63.5249 134.617 63.3173 135.143C62.8079 135.244 62.3469 135.502 62.1124 135.973C60.7214 138.769 59.6862 141.52 58.8883 144.547C58.6592 145.418 59.4355 145.856 60.1633 146.031C60.4302 146.094 60.7322 146.135 61.0422 146.163C61.0422 146.533 61.0395 146.902 61.0395 147.272C60.6971 147.469 60.4707 147.768 60.4922 148.19C60.6405 150.861 60.6783 153.515 60.6594 156.169C60.1742 162.837 58.0499 169.162 54.2517 174.969C53.1007 176.728 56.3058 177.401 57.376 176.563C58.0472 175.933 58.7859 175.435 59.5622 175.005C59.5137 175.415 59.4706 175.835 59.4221 176.245C59.2954 177.347 61.2093 177.664 61.8832 177.484C66.6573 176.204 65.5925 171.268 65.7003 167.105C65.7947 163.409 66.0993 159.725 66.509 156.052C67.7706 152.299 68.3313 148.664 68.2181 144.892C70.0242 141.947 71.2642 138.937 72.0244 135.628C72.1672 135.521 72.2832 135.389 72.3452 135.225C73.4504 132.288 74.5475 129.335 75.6285 126.374C78.3485 123.262 80.6371 119.888 82.5753 116.187C84.0391 119.915 85.4624 123.654 86.7779 127.437C87.2551 128.933 87.7268 130.431 88.2147 131.927C88.239 132.001 88.3009 132.047 88.3387 132.113C88.7889 133.496 89.2553 134.874 89.6812 136.269C89.7351 136.444 89.8511 136.592 89.9993 136.718C89.6677 137.586 89.5114 138.449 89.5195 139.312C89.3928 139.632 89.3011 139.969 89.2337 140.309C89.2283 140.336 89.2148 140.353 89.2094 140.38C89.1501 140.706 89.1286 141.005 89.1232 141.292C89.045 143.355 90.0802 145.316 92.5171 145.648C92.5225 145.653 92.5278 145.656 92.5359 145.659C92.7489 151.129 93.4363 156.482 94.5819 161.799C94.6952 163.713 94.8003 165.628 94.9297 167.535C94.962 168.022 95.2936 168.359 95.7357 168.57C95.8274 171.356 95.9217 174.139 96.0161 176.925C96.0781 178.752 99.5824 178.568 99.914 176.925C100.429 174.366 100.763 171.819 101.006 169.274C101.17 169.088 101.3 168.871 101.324 168.595C101.726 164.127 101.61 159.793 101.062 155.504C100.936 153.961 100.82 152.425 100.609 150.872C100.566 150.562 100.386 150.332 100.151 150.148C99.7685 148.406 99.3318 146.667 98.7899 144.925C100.186 142.678 99.8628 140.753 98.674 139.391C98.5958 139.274 98.5204 139.153 98.4206 139.032C98.2373 138.422 97.8922 137.838 97.4394 137.304C96.326 130.349 94.9108 123.44 93.385 116.548C93.5872 116.425 93.7544 116.277 93.8191 116.077C93.8541 115.968 93.8837 115.858 93.9188 115.749C94.2692 115.628 94.5658 115.447 94.6871 115.209C95.326 113.976 95.8354 112.692 96.2856 111.385C96.6225 111.511 96.9703 111.612 97.2992 111.755C97.5768 110.897 97.8357 110.037 98.1403 109.188C108.505 111.322 119.725 110.982 129.912 108.32C131.074 108.016 132.235 107.665 133.395 107.287C135.125 117.253 142.848 127.465 140.511 137.74C139.214 143.44 133.182 152.112 131.181 159.876C131.16 160.097 131.138 160.325 131.117 160.552C131.667 165.554 131.211 170.444 130.785 175.52C132.381 175.289 133.974 175.054 135.573 174.821C136.036 174.755 136.5 174.7 136.964 174.64C137.708 173.005 138.492 171.389 139.171 169.792C139.727 168.482 140.387 167.25 141.088 166.044C140.767 166.044 140.446 166.042 140.123 166.042C140.514 163.985 140.8 161.87 141.083 159.752C140.495 153.814 141.261 147.812 145.185 144.075C146.28 142.142 147.687 140.364 149.574 138.824C149.701 137.874 149.841 136.926 149.984 135.981C148.865 132.661 147.922 129.324 147.245 125.966C148.353 122.761 148.016 118.696 148.248 115.494C148.339 114.231 148.471 112.977 148.604 111.725C148.636 112.13 148.668 112.535 148.722 112.941C148.857 113.941 149.102 114.891 149.388 115.823C149.412 113.138 151.418 110.692 154.294 109.295C156.119 113.108 158.125 116.831 160.222 120.466C160.626 121.164 161.799 121.389 162.745 121.235C163.112 121.778 163.473 122.323 163.848 122.86C164.344 123.572 165.813 123.761 166.821 123.375C167.7 124.47 168.624 125.544 169.571 126.602C172.226 130.012 175.205 133.181 178.55 136.079C178.655 136.17 178.803 136.227 178.946 136.29C179.254 136.66 179.566 137.027 179.817 137.414C182.184 141.04 181.119 144.24 180.798 148.209C180.402 153.077 180.998 157.802 182.281 162.418C182.135 165.486 182.559 167.874 183.869 170.781C184.305 171.75 186.082 171.759 186.92 171.211C187.103 172.112 187.271 173.016 187.462 173.914V173.917C187.486 174.035 187.508 174.153 187.532 174.268C187.85 175.752 191.489 175.547 191.473 173.917C191.395 166.735 191.142 159.558 190.629 152.395C190.425 149.521 190.605 145.834 190.044 142.572C190.724 139.057 190.155 135.647 188.308 132.929C188.772 132.581 188.915 132.088 188.357 131.491C186.731 129.752 185.211 127.949 183.753 126.111C180.359 121.605 177.782 116.644 176.14 111.322C176.493 111.117 176.749 110.812 176.768 110.369C176.795 109.752 176.795 109.133 176.811 108.514C177.27 107.172 177.361 106.032 177.116 104.833C177.345 100.184 176.887 95.6341 175.798 91.1856C176.73 88.0847 177.186 84.8058 176.671 81.6036C176.189 78.5986 174.765 76.0127 172.797 73.8432C172.808 73.8405 172.819 73.8405 172.83 73.8378C177.496 72.9695 186.314 71.8381 190.09 67.4443C192.681 67.8662 195.25 68.4387 197.819 69.1947C206.82 84.9592 224.716 94.2043 242.338 95.489C245.662 97.149 242.745 103.655 241.241 105.49C239.551 107.553 237.545 109.35 235.793 111.363C232.499 115.146 229.437 119.504 228.353 124.52C227.124 130.196 229.358 135.4 230.062 140.969C230.938 147.894 229.981 154.8 227.563 161.314C227.186 162.333 228.709 162.555 229.337 162.486C233.502 162.037 233.812 157.594 233.938 154.148C234.227 146.36 234.345 138.567 234.604 130.776C234.677 128.538 234.909 126.761 236.553 125.024C237.626 123.893 239.672 123.145 240.963 122.233C243.203 120.652 245.325 118.877 247.282 116.946C250.776 113.489 253.641 109.522 256 105.219C258.049 108.832 260.019 112.497 261.521 116.384C263.534 121.594 264.144 126.971 264.764 132.486C265.95 143.048 266.494 153.34 264.995 163.913C264.826 165.119 267.279 165.083 267.775 164.409C273.312 156.903 271.341 146.429 270.942 137.704C270.427 126.467 269.915 115.231 269.4 103.994C280.453 107.367 293.098 106.824 302.525 100.028C301.336 103.948 300.759 108.06 300.953 112.166C301.236 118.154 304.441 123.923 303.999 129.864C303.544 136 299.824 142.018 297.061 147.365C294.082 153.129 290.723 158.577 286.232 163.25C285.073 164.456 287.858 164.845 288.561 164.436C293.931 161.333 297.171 156.172 300.522 151.069C302.239 148.456 304.002 145.848 306.175 143.599C308.547 141.144 311.604 139.402 313.459 136.452C316.898 130.984 315.715 124.04 315.858 117.913C315.998 111.884 317.696 106.205 320.686 101.189C321.413 103.729 322.591 106.087 323.991 108.306C327.082 113.207 331.212 117.296 334.943 121.674C339.545 127.07 342.984 132.809 344.383 139.884C345.885 147.478 345.37 155.301 344.85 162.971C344.764 164.234 347.591 164.256 347.718 162.971C348.707 152.943 349.699 142.914 350.689 132.886C351.101 128.705 351.479 125.459 349.341 121.75C347.033 117.743 344.642 113.842 342.607 109.673C338.833 101.945 336.305 93.8372 333.412 85.7591C332.967 84.5155 332.487 83.2691 331.986 82.0337C339.55 80.76 348.333 79.8559 354.802 75.5443C355.328 75.7936 355.867 76.0128 356.368 76.3141C360.145 78.5849 362.87 82.1706 364.798 86.1234C366.731 90.0871 367.626 94.3221 368.976 98.4913C370.09 101.937 371.952 104.866 375.007 106.827C377.875 108.668 381.274 109.5 384.617 109.835C388.482 110.224 392.321 109.467 396.168 109.772C396.882 109.829 397.556 109.963 398.206 110.144C396.815 114.88 395.248 119.556 393.461 124.175C393.246 124.733 393.542 125.131 394.03 125.361C394.011 125.41 393.99 125.459 393.971 125.509C392.442 128.492 390.916 131.472 389.345 134.439C389.313 134.455 389.267 134.466 389.237 134.482C388.86 134.715 388.531 134.973 388.226 135.241C388.134 135.239 388.04 135.241 387.948 135.236C387.488 135.225 386.646 135.48 386.663 136.085C386.673 136.447 386.682 136.805 386.692 137.164C384.765 140.668 385.587 145.557 384.18 149.461C384.148 149.549 384.102 149.625 384.069 149.713C383.234 151.082 382.35 152.417 381.411 153.718C378.985 156.928 376.368 159.993 373.451 162.859C372.586 163.708 373.683 164.352 374.847 164.447C374.23 165.568 373.661 166.718 373.235 167.956C372.553 169.945 376.344 170.005 377.139 168.669C378.764 165.935 380.382 163.198 382.005 160.462C383.188 158.813 384.299 157.123 385.339 155.4C385.779 154.731 386.204 154.049 386.601 153.345C386.625 153.301 386.644 153.249 386.668 153.205C387.21 152.239 387.7 151.241 388.202 150.25C388.854 149.113 389.482 147.96 390.102 146.804C391.315 144.758 392.531 142.714 393.741 140.665C395.726 137.309 397.834 133.965 399.888 130.582C402.702 127.733 405.328 124.739 407.759 121.564C408.064 122.03 408.379 122.493 408.74 122.942C410.075 124.613 411.684 126.131 412.897 127.867C413.779 129.952 414.25 132.212 414.191 134.554C414.148 136.277 413.746 138.044 413.916 139.769C413.816 141.076 414.013 142.131 414.997 143.169C415.609 143.815 416.248 144.36 416.676 145.166C417.183 146.124 417.361 147.247 417.426 148.321C417.542 150.209 417.34 152.102 417.361 153.992C417.385 156.172 417.534 158.462 417.876 160.719L417.814 162.026C417.749 163.404 417.741 164.798 417.607 166.168C417.426 167.973 416.647 168.775 415.183 169.66C413.908 170.43 412.722 171.709 413.512 173.273C413.582 173.41 413.752 173.506 413.903 173.501L418.221 173.369C419.413 173.334 420.998 173.55 422.114 173.013C423.742 172.232 423.238 170.441 422.855 169.047C422.437 167.521 422.669 166.546 423.41 165.182C423.993 164.116 424.359 163.116 424.195 161.878C424.038 160.706 423.505 159.629 423.141 158.517C422.647 157.002 422.354 155.43 422.203 153.844C421.92 150.866 422.098 147.869 422.203 144.884C422.289 142.432 422.647 139.545 421.696 137.219C421.208 136.027 420.321 135.077 419.655 133.992C418.879 132.729 418.34 131.332 418 129.883C417.329 127.029 417.466 124.035 418.032 121.175C418.545 118.597 419.321 116.086 420.208 113.604C428.707 115.354 437.91 115.075 446.264 112.892C449.173 112.133 452.076 111.045 454.88 109.711C455.432 109.952 455.955 110.232 456.5 110.487C458.12 111.867 459.813 113.187 461.552 114.464C461.57 115.206 461.592 115.949 461.692 116.683C462.277 120.992 464.843 124.421 466.544 128.305C468.202 132.091 469.21 136.178 469.577 140.303C470.294 148.376 468.633 156.679 464.7 163.743C464.237 164.579 463.738 165.392 463.212 166.19C460.492 167.556 457.934 169.507 456.969 172.438C456.875 172.726 457.123 172.988 457.392 173.002C459.365 173.095 461.341 173.09 463.315 172.936C464.393 172.854 466.258 172.947 466.983 171.912C467.382 171.342 467.39 170.507 467.331 169.696C467.641 169.274 467.903 168.836 468.105 168.4C469.089 166.272 469.375 163.889 469.771 161.596C470.234 158.911 470.733 156.224 471.561 153.627C473.076 148.877 475.974 144.264 480.734 142.388C480.971 142.295 481.179 141.988 480.996 141.733C477.286 136.545 475.337 130.245 475.351 123.857C477.184 125.065 479.009 126.281 480.861 127.456C483.462 129.108 484.788 129.461 486.026 132.288C486.95 134.406 486.773 135.66 486.81 137.86C486.913 143.749 488.242 149.398 490.36 154.83C490.444 159.448 490.905 167.529 494.854 169.553C497.504 170.912 499.2 169.211 500.494 167.085C501.874 164.817 502.753 163.385 502.588 162.034C503.502 161.689 504.036 160.985 503.001 160.27ZM24.3053 89.0736C23.6421 88.5367 22.9925 87.967 22.3806 87.3233C15.8543 80.4559 13.8487 69.8083 10.0532 61.2974C10.0235 61.2289 9.92111 61.2783 9.93728 61.3467C11.2204 66.7897 12.606 73.0653 14.9647 78.7356C13.9916 77.2701 13.1398 75.8786 12.4982 74.7363C9.92922 70.159 10.2177 65.7816 9.54643 60.9988C10.8296 60.8701 12.1235 60.8674 13.4956 61.1112C15.9002 61.5358 18.1969 62.4534 20.2941 63.7162C24.8984 66.4828 28.2221 70.8575 30.5728 75.6758C32.6592 79.9518 33.7564 84.4881 35.1204 88.9969C31.2791 90.3693 27.4808 90.7473 24.3053 89.0736ZM31.4866 92.851C32.9531 92.547 34.433 92.0512 35.9129 91.4376C36.2283 92.3279 36.5923 93.1825 37.002 94.007C35.1177 93.7796 33.2684 93.4099 31.4866 92.851ZM96.787 50.6362C95.6359 53.7316 94.2828 55.9037 93.8218 58.4786C92.1801 58.9388 90.5141 59.3306 88.8617 59.7251C85.0365 60.64 81.1224 61.6206 77.7339 63.7271C74.747 65.5844 72.5285 68.3126 70.3342 71.03C67.8272 74.1336 65.118 77.5851 61.1392 78.6972C59.5757 79.1328 58.023 79.1382 56.5296 78.8232C60.1822 75.936 63.7082 72.8736 67.1398 69.7837C74.9951 62.7136 83.4864 56.238 91.2312 49.0748C92.9321 50.4198 94.8057 50.4718 96.9164 50.2472C96.8706 50.3787 96.8355 50.5102 96.787 50.6362ZM172.161 73.2215C171.816 72.8736 171.471 72.5229 171.099 72.1997C175.609 70.904 179.96 69.1153 184.033 66.7841C185.462 66.8526 186.877 66.9842 188.284 67.1677C184.311 70.6329 178.202 72.3559 172.161 73.2215ZM337.784 79.2889C335.652 79.7217 333.514 80.1189 331.379 80.5353C331.037 79.7436 330.681 78.9602 330.307 78.185C333.854 77.0399 337.313 75.7169 340.701 74.2624C341.2 74.95 342.038 75.0623 342.823 74.7829C343.313 74.8157 343.825 74.7527 344.303 74.6541C346.524 74.1939 348.527 73.783 350.802 74.1857C351.546 74.3171 352.26 74.5582 352.977 74.7965C353.109 74.9554 353.419 75.0102 353.697 75.002C353.751 75.0239 353.799 75.0568 353.853 75.0787C349.691 77.8673 342.558 78.3165 337.784 79.2889ZM487.007 127.585C485.398 126.511 483.743 125.503 482.101 124.476C482.271 124.191 482.252 123.835 481.896 123.413C481.618 123.082 481.314 122.786 481.031 122.463C481.041 122.452 481.05 122.438 481.06 122.427C481.47 122.81 481.858 123.216 482.281 123.586C483.885 125.002 485.791 126.078 487.376 127.478C488.039 128.064 488.525 128.585 488.934 129.086C488.422 128.609 487.821 128.125 487.007 127.585Z" fill="#70200E" fill-opacity="0.72"/>
</svg>
