<svg width="55" height="51" viewBox="0 0 55 51" fill="none" xmlns="http://www.w3.org/2000/svg">
<path d="M36.9184 24.3365L36.9182 24.3365C20.9393 22.8512 10.5773 13.5284 10.1646 13.1517C9.61321 12.6476 9.55456 11.7611 10.0429 11.1808C10.5204 10.614 11.3362 10.5617 11.8746 11.0527L11.8753 11.0533C12.0166 11.1816 21.5213 19.6783 35.8948 21.4409L36.2519 21.4847L36.4069 21.16C37.3016 19.2856 39.2067 15.5226 41.835 11.5585C44.4681 7.58696 47.8025 3.45142 51.5455 0.797569L51.5461 0.797195C52.1333 0.379671 52.9398 0.531362 53.3507 1.16114L53.3507 1.16123C53.7698 1.80327 53.6032 2.67366 53.0023 3.09964L53.0023 3.09966C48.8161 6.06762 45.135 11.1648 42.5071 15.4906C39.8752 19.8227 38.2622 23.4448 38.2204 23.5397C37.9989 24.0415 37.5288 24.342 37.0332 24.342C36.9956 24.342 36.9577 24.3402 36.9184 24.3365Z" fill="#873719" fill-opacity="0.72" stroke="black"/>
<path d="M31.3665 43.5701L31.3678 43.5702C31.4008 43.573 31.4342 43.5743 31.471 43.5743C32.128 43.5743 32.7167 43.0418 32.7726 42.3012L32.7727 42.3007C32.8326 41.5166 32.2734 40.8656 31.5702 40.8078L31.5698 40.8078C21.5931 39.9798 15.228 37.2471 11.6274 35.078C7.79815 32.7719 6.23781 30.6199 6.16085 30.5103L6.15751 30.5056L6.15754 30.5056C5.73581 29.8902 4.93224 29.755 4.35194 30.1809L31.3665 43.5701ZM31.3665 43.5701C10.7728 41.8612 4.23237 32.4193 4.03367 32.1252L4.03364 32.1251M31.3665 43.5701L4.03364 32.1251M4.03364 32.1251C3.60516 31.491 3.75694 30.6178 4.35189 30.1809L4.03364 32.1251Z" fill="#873719" fill-opacity="0.72" stroke="black"/>
<path d="M40.3856 31.6156L40.3856 31.6156C36.2858 27.3428 35.7515 23.2464 35.7379 23.1364L35.7379 23.1361C35.6413 22.3569 36.1699 21.6758 36.8706 21.5811C37.5638 21.4899 38.2311 21.9962 38.3325 22.764L38.3325 22.764L38.3335 22.7708C38.357 22.9313 38.8923 26.1696 42.2225 29.6401C42.7434 30.1831 42.7434 31.0718 42.2225 31.6147L42.2221 31.6152C41.9648 31.884 41.6335 32.014 41.3041 32.014C40.9753 32.014 40.643 31.8838 40.3856 31.6156Z" fill="#873719" fill-opacity="0.72" stroke="black"/>
<path d="M3.47815 38.4509C4.82728 38.4509 5.9563 37.3045 5.9563 35.8465C5.9563 34.3889 4.82759 33.243 3.47815 33.2422V38.4509ZM3.47815 38.4509C2.12903 38.4509 1 37.3045 1 35.8465M3.47815 38.4509L1 35.8465M1 35.8465C1 34.3887 2.12888 33.2423 3.4779 33.2422L1 35.8465Z" fill="#873719" fill-opacity="0.72" stroke="black"/>
<path d="M12.425 17.3465C12.425 18.8047 11.2962 19.9509 9.9469 19.9509C8.59762 19.9509 7.46875 18.8046 7.46875 17.3465C7.46875 15.8884 8.59762 14.7422 9.9469 14.7422C11.2962 14.7422 12.425 15.8884 12.425 17.3465Z" fill="#873719" fill-opacity="0.72" stroke="black"/>
<path d="M19.1907 21.7372C19.1907 23.1951 18.0616 24.3415 16.7125 24.3415C15.3634 24.3415 14.2344 23.1951 14.2344 21.7372C14.2344 20.2792 15.3634 19.1328 16.7125 19.1328C18.0624 19.1328 19.1907 20.2791 19.1907 21.7372Z" fill="#873719" fill-opacity="0.72" stroke="black"/>
<path d="M26.7453 25.2059C26.7453 26.6639 25.6163 27.8103 24.2672 27.8103C22.9181 27.8103 21.7891 26.6639 21.7891 25.2059C21.7891 23.748 22.9181 22.6016 24.2672 22.6016C25.6163 22.6016 26.7453 23.748 26.7453 25.2059Z" fill="#873719" fill-opacity="0.72" stroke="black"/>
<path d="M34.7688 27.2958C34.7688 28.7539 33.6399 29.9001 32.2906 29.9001C30.9414 29.9001 29.8125 28.7539 29.8125 27.2958C29.8125 25.8377 30.9414 24.6914 32.2906 24.6914C33.6399 24.6914 34.7688 25.8377 34.7688 27.2958Z" fill="#873719" fill-opacity="0.72" stroke="black"/>
<path d="M39.9641 33.6473C39.9641 35.1054 38.8352 36.2517 37.486 36.2517C36.1367 36.2517 35.0078 35.1054 35.0078 33.6473C35.0078 32.1892 36.1367 31.043 37.486 31.043C38.8352 31.043 39.9641 32.1892 39.9641 33.6473Z" fill="#873719" fill-opacity="0.72" stroke="black"/>
<path d="M11.1047 40.4989C11.1047 41.957 9.97587 43.1032 8.62658 43.1032C7.27729 43.1032 6.14844 41.957 6.14844 40.4989C6.14844 39.0408 7.27729 37.8945 8.62658 37.8945C9.97587 37.8945 11.1047 39.0408 11.1047 40.4989Z" fill="#873719" fill-opacity="0.72" stroke="black"/>
<path d="M17.5266 43.6004C17.5266 45.0586 16.3978 46.2048 15.0485 46.2048C13.6992 46.2048 12.5703 45.0586 12.5703 43.6004C12.5703 42.1423 13.6992 40.9961 15.0485 40.9961C16.3978 40.9961 17.5266 42.1423 17.5266 43.6004Z" fill="#873719" fill-opacity="0.72" stroke="black"/>
<path d="M24.4953 45.745C24.4953 47.2031 23.3665 48.3493 22.0172 48.3493C20.6679 48.3493 19.5391 47.2031 19.5391 45.745C19.5391 44.2869 20.6679 43.1406 22.0172 43.1406C23.3665 43.1406 24.4953 44.2869 24.4953 45.745Z" fill="#873719" fill-opacity="0.72" stroke="black"/>
<path d="M32.1203 46.995C32.1203 48.4531 30.9915 49.5993 29.6422 49.5993C28.2929 49.5993 27.1641 48.4531 27.1641 46.995C27.1641 45.5369 28.2929 44.3906 29.6422 44.3906C30.9915 44.3906 32.1203 45.5369 32.1203 46.995Z" fill="#873719" fill-opacity="0.72" stroke="black"/>
</svg>
