<svg width="105" height="85" viewBox="0 0 105 85" fill="none" xmlns="http://www.w3.org/2000/svg">
<path d="M19.6709 13.3055C19.6146 13.2108 19.5438 13.1115 19.4676 13.0125C19.2795 12.7683 19.0095 12.4634 18.6939 12.1243C18.2309 11.6265 17.6444 11.028 17.0268 10.3976C16.8012 10.1673 16.5714 9.93275 16.3419 9.69732C15.4782 8.81114 14.6153 7.90862 13.9603 7.13952C13.6324 6.75443 13.3651 6.41268 13.1778 6.12992C12.9753 5.82404 12.9168 5.65963 12.9117 5.61006C12.8591 5.09921 13.1987 4.40403 13.766 3.83097C14.0381 3.55613 14.3319 3.34257 14.5957 3.21728C14.867 3.08846 15.0383 3.0838 15.1168 3.10589C15.1174 3.10676 15.1473 3.12064 15.213 3.16899C15.2875 3.22378 15.3826 3.3037 15.4984 3.41062C15.7295 3.62407 16.0168 3.92056 16.3464 4.27972C17.0046 4.99703 17.8035 5.9334 18.6132 6.88657C18.6773 6.96201 18.7415 7.03754 18.8056 7.11307C19.5485 7.98784 20.2907 8.86184 20.9203 9.56369C21.2622 9.94478 21.5764 10.2813 21.8432 10.5427C22.0936 10.7878 22.3497 11.0153 22.5661 11.1246C22.7044 11.1945 22.8702 11.2327 23.0204 11.2577C23.1805 11.2844 23.3682 11.303 23.5746 11.316C23.9879 11.342 24.5098 11.3474 25.1023 11.34C26.2272 11.3259 27.6436 11.265 29.1257 11.2013C29.2063 11.1979 29.287 11.1944 29.368 11.1909C30.9421 11.1234 32.5797 11.0551 34.0359 11.0362C35.5009 11.0172 36.7484 11.0489 37.5555 11.1726C38.5801 11.3297 40.156 11.5978 41.9482 11.9027C46.0466 12.6 51.2764 13.4897 53.6328 13.6848C54.52 13.7583 57.0424 13.6451 60.2906 13.4406C63.5622 13.2345 67.6243 12.9316 71.6325 12.6136C79.6421 11.9782 87.4616 11.2806 88.327 11.1747C88.7141 11.1273 89.0572 10.8642 89.3342 10.5925C89.6289 10.3033 89.9345 9.91687 90.2427 9.48127C90.8131 8.67519 91.4368 7.63644 92.0639 6.59188C92.1149 6.50704 92.1658 6.42215 92.2168 6.33736C92.9021 5.19708 93.5889 4.06781 94.2385 3.18513C94.5631 2.74409 94.8685 2.37831 95.1497 2.10861C95.4386 1.83165 95.6634 1.69385 95.8224 1.64867C96.8593 1.35415 97.7821 1.37072 98.3809 1.58615C98.6771 1.69271 98.8649 1.83662 98.9681 1.98389C99.0639 2.12072 99.1133 2.29673 99.0687 2.54189C99.0528 2.62961 98.9667 2.839 98.7654 3.18835C98.5755 3.51794 98.3142 3.92034 98.0032 4.37322C97.3948 5.25919 96.6166 6.30866 95.8557 7.33492L95.8057 7.40239C95.0335 8.44395 94.2805 9.46087 93.7653 10.2309C93.5102 10.6122 93.2985 10.9546 93.173 11.2185C93.1141 11.3424 93.0515 11.4943 93.0326 11.644C93.0231 11.7187 93.0172 11.8449 93.0727 11.9791C93.1391 12.1396 93.272 12.2585 93.4372 12.3077L93.4376 12.3079C93.5204 12.3325 93.7265 12.4452 94.0532 12.6832C94.3599 12.9067 94.7238 13.2035 95.1058 13.5374C95.8707 14.2062 96.6814 15.0009 97.2149 15.6077C97.3141 15.7205 97.5085 16.0182 97.7883 16.5057C98.0592 16.9776 98.3891 17.5897 98.7563 18.2972C99.4904 19.7114 100.367 21.4933 101.206 23.269C102.045 25.045 102.844 26.8098 103.426 28.1901C103.717 28.8811 103.95 29.4697 104.107 29.9127C104.186 30.1349 104.242 30.3127 104.276 30.4444C104.305 30.5555 104.309 30.6003 104.311 30.6023C104.262 30.9812 104.131 31.0436 104.105 31.0542C104.05 31.0761 103.912 31.0845 103.703 30.9673C103.684 30.9453 103.657 30.9105 103.62 30.8602C103.541 30.7519 103.436 30.596 103.307 30.3942C103.048 29.992 102.708 29.432 102.308 28.7613C101.778 27.8711 101.151 26.7963 100.483 25.6527C100.144 25.073 99.7957 24.4756 99.444 23.8757C98.4006 22.0957 97.3334 20.2949 96.4476 18.8857C96.0051 18.1817 95.604 17.5693 95.2716 17.1037C95.1056 16.8713 94.9525 16.6696 94.817 16.5092C94.6901 16.3592 94.5496 16.2097 94.4085 16.1156C93.702 15.6443 92.9191 15.4301 92.2016 15.5195C91.4719 15.6105 90.8318 16.0167 90.476 16.7252M19.6709 13.3055L90.476 16.7252M19.6709 13.3055L19.7012 13.3083L20.6742 13.3964C21.5137 13.4726 22.7158 13.5819 24.1663 13.7143C27.0671 13.9792 30.9615 14.3368 34.9355 14.7075C42.8655 15.4472 51.1585 16.243 52.4525 16.4563L19.6709 13.3055ZM90.476 16.7252C90.476 16.7251 90.4761 16.7251 90.4761 16.725L90.9221 16.9493L90.476 16.7252ZM85.9672 36.5546C85.555 36.6984 84.8822 36.759 84.3019 36.6579C84.0092 36.607 83.7797 36.5214 83.6292 36.4181C83.4888 36.3216 83.4372 36.2268 83.4257 36.1268C83.4003 35.9052 83.4186 35.218 83.4787 34.2167C83.5373 33.24 83.6316 32.0182 83.7424 30.7702C83.9655 28.2588 84.2516 25.6922 84.4444 24.7878C84.6386 23.8765 85.3811 21.4489 86.0866 19.2166C86.4371 18.1077 86.7751 17.0572 87.0256 16.284C87.1508 15.8974 87.2541 15.5801 87.3261 15.3596L87.4093 15.1047L87.4312 15.0381L87.4367 15.0211L87.4381 15.0168L87.4385 15.0158L87.4386 15.0155L86.9635 14.8595M85.9672 36.5546L52.4527 16.4563C52.7132 16.4991 53.4374 16.509 54.5744 16.48C55.6874 16.4516 57.1427 16.3882 58.822 16.3001C62.18 16.1239 66.4214 15.8498 70.5858 15.5625C74.7497 15.2752 78.8344 14.9748 81.8783 14.7463C83.4003 14.632 84.6619 14.5357 85.543 14.4679C85.9836 14.434 86.329 14.4073 86.5643 14.3891L86.8327 14.3682L86.9014 14.3628L86.9187 14.3615L86.9231 14.3611L86.9242 14.361C86.9244 14.361 86.9245 14.361 86.9635 14.8595M85.9672 36.5546C85.9747 36.552 85.982 36.5494 85.9893 36.5468M85.9672 36.5546C85.9639 36.5583 85.9621 36.5598 85.9622 36.5599C85.9623 36.5601 85.9708 36.5535 85.9893 36.5468M86.9635 14.8595L87.4386 15.0154L87.6726 14.3025L86.9245 14.361L86.9635 14.8595ZM86.9635 14.8595C87.0025 15.358 87.0024 15.358 87.0022 15.358L87.0011 15.3581L86.9967 15.3584L86.9792 15.3598L86.9104 15.3652L86.7954 15.3741L86.4237 14.9015L86.459 14.7936L86.4809 14.7266L86.4865 14.7094L86.488 14.705L86.4883 14.7039L86.4884 14.7037C86.4884 14.7036 86.4885 14.7036 86.5555 14.7256C86.6172 14.7458 86.7357 14.7847 86.9635 14.8595ZM85.9893 36.5468C85.9893 36.5467 85.9894 36.5467 85.9894 36.5467L86.1607 37.0165L85.9893 36.5468ZM103.718 30.9843C103.72 30.9865 103.721 30.9878 103.722 30.988C103.722 30.9883 103.721 30.9872 103.718 30.9843ZM15.1222 3.10748C15.1221 3.10746 15.122 3.10744 15.122 3.10742L15.1222 3.10748Z" fill="#873719" fill-opacity="0.72" stroke="black"/>
<mask id="path-2-inside-1_553_8934" fill="white">
<path d="M88.6719 9.65234C89.1021 9.95298 89.5331 10.1979 89.9779 10.3913C90.4234 10.5771 90.8755 10.7291 91.3438 10.7865C91.8088 10.8498 92.2844 10.8802 92.7656 10.8228C93.0095 10.8186 93.2468 10.7536 93.4956 10.7291C93.7418 10.6894 93.9841 10.6226 94.2474 10.5922C94.0392 10.7493 93.8188 10.8971 93.5863 11.0229C93.3449 11.1209 93.1083 11.2552 92.8474 11.3058C92.3378 11.4697 91.7886 11.4705 91.2555 11.4072C90.7208 11.3278 90.2055 11.1226 89.7583 10.8219C89.3119 10.5255 88.9198 10.132 88.6719 9.65234Z"/>
</mask>
<path d="M88.6719 9.65234C89.1021 9.95298 89.5331 10.1979 89.9779 10.3913C90.4234 10.5771 90.8755 10.7291 91.3438 10.7865C91.8088 10.8498 92.2844 10.8802 92.7656 10.8228C93.0095 10.8186 93.2468 10.7536 93.4956 10.7291C93.7418 10.6894 93.9841 10.6226 94.2474 10.5922C94.0392 10.7493 93.8188 10.8971 93.5863 11.0229C93.3449 11.1209 93.1083 11.2552 92.8474 11.3058C92.3378 11.4697 91.7886 11.4705 91.2555 11.4072C90.7208 11.3278 90.2055 11.1226 89.7583 10.8219C89.3119 10.5255 88.9198 10.132 88.6719 9.65234Z" fill="#873719" fill-opacity="0.72"/>
<path d="M88.6719 9.65234L89.2447 8.83267L87.7835 10.1115L88.6719 9.65234ZM89.9779 10.3913L89.5791 11.3083L89.586 11.3114L89.593 11.3143L89.9779 10.3913ZM91.3438 10.7865L91.4787 9.79555L91.4655 9.79392L91.3438 10.7865ZM92.7656 10.8228L92.7483 9.82295L92.6975 9.82383L92.6471 9.82984L92.7656 10.8228ZM93.4956 10.7291L93.5936 11.7243L93.6242 11.7212L93.6547 11.7163L93.4956 10.7291ZM94.2474 10.5922L94.8496 11.3906L97.7834 9.17732L94.1327 9.59884L94.2474 10.5922ZM93.5863 11.0229L93.9623 11.9496L94.0136 11.9288L94.0622 11.9024L93.5863 11.0229ZM92.8474 11.3058L92.6568 10.3242L92.5982 10.3356L92.5414 10.3538L92.8474 11.3058ZM91.2555 11.4072L91.1086 12.3963L91.123 12.3985L91.1375 12.4002L91.2555 11.4072ZM89.7583 10.8219L90.3162 9.99203L90.3115 9.98888L89.7583 10.8219ZM88.099 10.472C88.5779 10.8067 89.0669 11.0856 89.5791 11.3083L90.3766 9.47421C89.9993 9.31016 89.6262 9.0993 89.2447 8.83267L88.099 10.472ZM89.593 11.3143C90.0755 11.5154 90.6237 11.7057 91.2221 11.7791L91.4655 9.79392C91.1273 9.75245 90.7714 9.63869 90.3627 9.46829L89.593 11.3143ZM91.2088 11.7773C91.7184 11.8467 92.2866 11.8871 92.8841 11.8158L92.6471 9.82984C92.2822 9.87339 91.8992 9.85291 91.4787 9.79564L91.2088 11.7773ZM92.7829 11.8227C92.9823 11.8192 93.1633 11.7912 93.2907 11.7703C93.4376 11.7462 93.5111 11.7324 93.5936 11.7243L93.3976 9.73388C93.2313 9.75025 93.0617 9.78116 92.9668 9.79673C92.8524 9.81551 92.7928 9.82218 92.7483 9.82295L92.7829 11.8227ZM93.6547 11.7163C93.805 11.6921 93.9585 11.6588 94.0657 11.6368C94.1848 11.6125 94.2758 11.5956 94.3621 11.5856L94.1327 9.59884C93.9556 9.61929 93.7939 9.651 93.6645 9.6775C93.5232 9.70643 93.4324 9.72635 93.3365 9.74181L93.6547 11.7163ZM93.6451 9.79394C93.466 9.92907 93.2882 10.0472 93.1104 10.1435L94.0622 11.9024C94.3494 11.747 94.6123 11.5696 94.8496 11.3906L93.6451 9.79394ZM93.2103 10.0963C93.1035 10.1397 92.8682 10.2467 92.8309 10.2627C92.7335 10.3043 92.6847 10.3188 92.6568 10.3242L93.0381 12.2875C93.271 12.2423 93.4709 12.1642 93.6174 12.1016C93.824 12.0132 93.8277 12.0042 93.9623 11.9496L93.2103 10.0963ZM92.5414 10.3538C92.2247 10.4556 91.8373 10.4693 91.3735 10.4142L91.1375 12.4002C91.7399 12.4718 92.4509 12.4837 93.1535 12.2579L92.5414 10.3538ZM91.4023 10.418C91.021 10.3614 90.6453 10.2133 90.3162 9.99205L89.2004 11.6519C89.7657 12.0319 90.4205 12.2942 91.1086 12.3963L91.4023 10.418ZM90.3115 9.98888C89.9745 9.76512 89.714 9.49069 89.5602 9.19321L87.7835 10.1115C88.1256 10.7733 88.6493 11.2859 89.2051 11.655L90.3115 9.98888Z" fill="black" mask="url(#path-2-inside-1_553_8934)"/>
<mask id="path-4-inside-2_553_8934" fill="white">
<path d="M88.9375 9.92969C89.3077 10.2759 89.6853 10.5673 90.0847 10.7978C90.4865 11.0208 90.8989 11.2057 91.3364 11.2834C91.7706 11.3679 92.2195 11.4025 92.6788 11.3603C92.9097 11.356 93.1382 11.2986 93.3772 11.2784C93.6121 11.2378 93.8463 11.1787 94.099 11.1525C93.9005 11.3062 93.6883 11.4464 93.4679 11.5722C93.2362 11.666 93.0077 11.7935 92.7566 11.8442C92.264 11.9945 91.7301 11.9911 91.2149 11.899C90.1851 11.6803 89.277 10.9135 88.9375 9.92969Z"/>
</mask>
<path d="M88.9375 9.92969C89.3077 10.2759 89.6853 10.5673 90.0847 10.7978C90.4865 11.0208 90.8989 11.2057 91.3364 11.2834C91.7706 11.3679 92.2195 11.4025 92.6788 11.3603C92.9097 11.356 93.1382 11.2986 93.3772 11.2784C93.6121 11.2378 93.8463 11.1787 94.099 11.1525C93.9005 11.3062 93.6883 11.4464 93.4679 11.5722C93.2362 11.666 93.0077 11.7935 92.7566 11.8442C92.264 11.9945 91.7301 11.9911 91.2149 11.899C90.1851 11.6803 89.277 10.9135 88.9375 9.92969Z" fill="#873719" fill-opacity="0.72"/>
<path d="M88.9375 9.92969L89.6205 9.1993L87.9922 10.2559L88.9375 9.92969ZM90.0847 10.7978L89.5848 11.6639L89.5921 11.6682L89.5995 11.6723L90.0847 10.7978ZM91.3364 11.2834L91.5273 10.3018L91.5193 10.3003L91.5112 10.2988L91.3364 11.2834ZM92.6788 11.3603L92.6605 10.3604L92.6238 10.3611L92.5873 10.3645L92.6788 11.3603ZM93.3772 11.2784L93.4617 12.2748L93.5047 12.2711L93.5472 12.2638L93.3772 11.2784ZM94.099 11.1525L94.7113 11.9432L97.4834 9.79668L93.996 10.1579L94.099 11.1525ZM93.4679 11.5722L93.8429 12.4992L93.9053 12.474L93.9638 12.4406L93.4679 11.5722ZM92.7566 11.8442L92.5588 10.8639L92.5112 10.8735L92.4647 10.8877L92.7566 11.8442ZM91.2149 11.899L91.0071 12.8772L91.023 12.8806L91.039 12.8835L91.2149 11.899ZM88.2545 10.6601C88.6675 11.0463 89.1056 11.3874 89.5848 11.6639L90.5846 9.93177C90.2649 9.74723 89.948 9.50553 89.6205 9.1993L88.2545 10.6601ZM89.5995 11.6723C90.0423 11.9179 90.5665 12.1624 91.1615 12.268L91.5112 10.2988C91.2313 10.2491 90.9308 10.1237 90.5698 9.92341L89.5995 11.6723ZM91.1455 12.265C91.6563 12.3644 92.2013 12.4084 92.7703 12.3561L92.5873 10.3645C92.2376 10.3966 91.8849 10.3714 91.5273 10.3018L91.1455 12.265ZM92.6971 12.3601C92.8832 12.3567 93.054 12.3322 93.1736 12.3142C93.3109 12.2936 93.3836 12.2814 93.4617 12.2748L93.2927 10.2819C93.1318 10.2956 92.9707 10.3222 92.8763 10.3364C92.7642 10.3533 92.7053 10.3596 92.6605 10.3604L92.6971 12.3601ZM93.5472 12.2638C93.8877 12.2051 93.9861 12.1696 94.202 12.1472L93.996 10.1579C93.7064 10.1879 93.3366 10.2706 93.2071 10.2929L93.5472 12.2638ZM93.4868 10.3619C93.3282 10.4847 93.1552 10.5993 92.972 10.7038L93.9638 12.4406C94.2213 12.2936 94.4729 12.1278 94.7113 11.9432L93.4868 10.3619ZM93.0929 10.6452C92.9916 10.6862 92.7634 10.7892 92.7283 10.8041C92.6345 10.8439 92.5867 10.8583 92.5588 10.8639L92.9544 12.8244C93.1776 12.7794 93.3697 12.7046 93.5107 12.6447C93.7106 12.5597 93.7126 12.552 93.8429 12.4992L93.0929 10.6452ZM92.4647 10.8877C92.1661 10.9788 91.8006 10.9879 91.3907 10.9146L91.039 12.8835C91.6596 12.9943 92.3619 13.0101 93.0485 12.8006L92.4647 10.8877ZM91.4226 10.9209C90.7145 10.7704 90.1008 10.2353 89.8828 9.60352L87.9922 10.2559C88.4531 11.5918 89.6558 12.5902 91.0071 12.8772L91.4226 10.9209Z" fill="black" mask="url(#path-4-inside-2_553_8934)"/>
<mask id="path-6-inside-3_553_8934" fill="white">
<path d="M88.6719 9.88672C89.4415 10.6341 90.2484 11.2472 91.1664 11.5301C91.6192 11.6787 92.0964 11.753 92.5849 11.7319C93.0783 11.7362 93.5685 11.6247 94.0975 11.5411C93.6714 11.8637 93.178 12.1255 92.6352 12.2201C92.098 12.3484 91.5212 12.2952 90.9881 12.1314C90.4558 11.9566 89.9649 11.6585 89.5703 11.2666C89.1766 10.8756 88.8517 10.4111 88.6719 9.88672Z"/>
</mask>
<path d="M88.6719 9.88672C89.4415 10.6341 90.2484 11.2472 91.1664 11.5301C91.6192 11.6787 92.0964 11.753 92.5849 11.7319C93.0783 11.7362 93.5685 11.6247 94.0975 11.5411C93.6714 11.8637 93.178 12.1255 92.6352 12.2201C92.098 12.3484 91.5212 12.2952 90.9881 12.1314C90.4558 11.9566 89.9649 11.6585 89.5703 11.2666C89.1766 10.8756 88.8517 10.4111 88.6719 9.88672Z" fill="#873719" fill-opacity="0.72"/>
<path d="M88.6719 9.88672L89.3685 9.16931L87.726 10.2111L88.6719 9.88672ZM91.1664 11.5301L91.4782 10.58L91.4696 10.5771L91.4609 10.5745L91.1664 11.5301ZM92.5849 11.7319L92.5935 10.732L92.5676 10.7318L92.5418 10.7329L92.5849 11.7319ZM94.0975 11.5411L94.7011 12.3384L93.9414 10.5534L94.0975 11.5411ZM92.6352 12.2201L92.4635 11.2349L92.4329 11.2402L92.4027 11.2474L92.6352 12.2201ZM90.9881 12.1314L90.6761 13.0814L90.6852 13.0844L90.6943 13.0873L90.9881 12.1314ZM89.5703 11.2666L90.275 10.5571L90.275 10.5571L89.5703 11.2666ZM87.9752 10.6041C88.786 11.3915 89.7296 12.1337 90.8718 12.4858L91.4609 10.5745C90.7673 10.3607 90.097 9.87674 89.3685 9.16931L87.9752 10.6041ZM90.8545 12.4803C91.4117 12.6631 92.0091 12.7578 92.6281 12.731L92.5418 10.7329C92.1837 10.7483 91.8267 10.6944 91.4782 10.58L90.8545 12.4803ZM92.5764 12.7319C93.1798 12.7371 93.8158 12.598 94.2536 12.5288L93.9414 10.5534C93.3211 10.6514 92.9768 10.7353 92.5935 10.732L92.5764 12.7319ZM93.4939 10.7438C93.1498 11.0043 92.802 11.1759 92.4635 11.2349L92.8068 13.2052C93.554 13.075 94.1929 12.7231 94.7011 12.3384L93.4939 10.7438ZM92.4027 11.2474C92.0797 11.3246 91.6888 11.3006 91.2819 11.1755L90.6943 13.0873C91.3536 13.2898 92.1163 13.3722 92.8676 13.1927L92.4027 11.2474ZM91.3001 11.1813C90.9124 11.054 90.5568 10.8369 90.275 10.5571L88.8657 11.9762C89.373 12.48 89.9992 12.8592 90.6761 13.0814L91.3001 11.1813ZM90.275 10.5571C89.9635 10.2477 89.7369 9.90973 89.6178 9.56231L87.726 10.2111C87.9665 10.9126 88.3897 11.5035 88.8657 11.9762L90.275 10.5571Z" fill="black" mask="url(#path-6-inside-3_553_8934)"/>
<path d="M87.4773 11.2643C87.3565 11.2772 87.2237 11.2913 87.0796 11.3065C86.2809 11.3911 85.1334 11.5112 83.7384 11.6533C80.9484 11.9376 77.1674 12.3102 73.2041 12.6632C69.2415 13.0161 65.0935 13.3497 61.5705 13.5559C58.064 13.7611 55.1319 13.8432 53.629 13.681C50.7372 13.3691 44.0732 12.9123 37.4478 12.6545C34.1366 12.5257 30.8407 12.4468 28.0354 12.4603C25.285 12.4735 23.0397 12.5756 21.7117 12.7976C21.6696 12.8431 21.6097 12.9179 21.5313 13.0295C21.3635 13.2685 21.1464 13.6252 20.8844 14.0927C20.3622 15.0245 19.686 16.3526 18.9064 17.9559C17.3484 21.1602 15.391 25.4351 13.451 29.772C9.56724 38.4543 5.77116 47.344 5.39221 48.3699C5.31167 48.5879 5.17643 49.151 4.99904 50.0206C4.82512 50.8732 4.6181 51.9814 4.39101 53.2584C3.93694 55.8116 3.40449 59.0287 2.89898 62.2018C2.39351 65.3748 1.91536 68.5015 1.56991 70.8734C1.39714 72.0596 1.25782 73.0552 1.16491 73.7728C1.1184 74.1321 1.08391 74.4186 1.06268 74.6234C1.06226 74.6273 1.06186 74.6313 1.06145 74.6352C1.07527 74.6392 1.08971 74.6433 1.10477 74.6476C1.36292 74.7205 1.74969 74.8127 2.25509 74.9217C3.26289 75.1391 4.70923 75.4164 6.46665 75.7312C9.97986 76.3606 14.7191 77.1371 19.6414 77.8813C24.5638 78.6254 29.6653 79.3365 33.9036 79.8354C38.1645 80.3368 41.4965 80.6162 42.9184 80.5157C45.8546 80.3083 57.0015 78.8483 67.6023 77.3577C72.8971 76.6132 78.0464 75.8623 81.9527 75.2586C83.9062 74.9567 85.5464 74.6919 86.7376 74.4834C87.3337 74.379 87.8137 74.2894 88.1629 74.2166C88.3334 74.1811 88.4686 74.1505 88.5691 74.1249C88.5722 74.0971 88.5751 74.0642 88.5775 74.0257C88.5921 73.7876 88.581 73.4314 88.5416 72.9591C88.4635 72.0204 88.2806 70.6982 88.0216 69.1065C87.5041 65.9271 86.6904 61.7184 85.8314 57.4535C85.2543 54.5883 84.6576 51.7023 84.1174 49.0893C83.8536 47.813 83.6031 46.6017 83.3751 45.4898C83.0278 43.797 82.7321 42.3338 82.52 41.2245C82.3121 40.1368 82.1746 39.3414 82.1601 39.0219M87.4773 11.2643L82.1601 39.0219M87.4773 11.2643C87.3227 11.677 87.1641 12.1656 87.0028 12.7112C86.7128 13.6924 86.4056 14.8888 86.0927 16.2214C85.4666 18.8871 84.8132 22.1159 84.2234 25.2948C83.6334 28.4743 83.106 31.6088 82.7322 34.0875C82.5454 35.3266 82.3965 36.4045 82.2973 37.2434C82.2002 38.0651 82.1454 38.6989 82.1601 39.0219M87.4773 11.2643L82.1601 39.0219M88.5442 74.2537C88.544 74.2534 88.5453 74.249 88.5487 74.2416C88.546 74.2502 88.5444 74.2539 88.5442 74.2537Z" fill="#873719" fill-opacity="0.72" stroke="black"/>
<path d="M87.5271 10.9914C87.4011 10.9734 87.2459 10.9558 87.0561 10.941C86.0946 10.8658 84.2969 10.8631 81.0006 11.1756C77.6785 11.4906 71.4514 11.8569 65.6465 12.1052C59.861 12.3526 54.4288 12.4861 52.7313 12.325L87.5271 10.9914ZM87.5271 10.9914C86.8822 12.2337 86.1265 14.1507 85.3486 16.4018C84.4341 19.0484 83.4752 22.1979 82.6144 25.3482C81.7537 28.4982 80.9893 31.6556 80.4646 34.3177C79.9447 36.9559 79.6463 39.1727 79.7537 40.4035C79.896 42.0355 80.6608 47.1555 81.5548 53.14C81.9309 55.6576 82.3298 58.3281 82.7149 60.9564C83.3665 65.4045 83.9799 69.7399 84.3801 73.0338C84.5804 74.6818 84.7264 76.062 84.7976 77.0629C84.8333 77.5646 84.8494 77.9608 84.8454 78.2436C84.8438 78.3587 84.8389 78.4472 84.8322 78.5122C84.7776 78.5364 84.7026 78.5654 84.6042 78.5987C84.3472 78.6858 83.9778 78.7865 83.5013 78.8988C82.5511 79.1227 81.2178 79.3824 79.6005 79.6636C76.3682 80.2254 72.0296 80.8679 67.4149 81.4749C58.1738 82.6904 47.8778 83.7569 43.153 83.7569C38.4273 83.7569 29.3599 82.7948 21.2699 81.7751C17.2312 81.266 13.4464 80.7439 10.5844 80.3231C9.15328 80.1127 7.95421 79.9278 7.07021 79.7826C6.33185 79.6614 5.84068 79.5721 5.61061 79.5211C5.60901 79.5167 5.60736 79.5121 5.60566 79.5071C5.56407 79.386 5.52327 79.187 5.49128 78.8987C5.42802 78.3284 5.40944 77.5103 5.42971 76.5011C5.47013 74.4887 5.6631 71.7872 5.92596 68.9462C6.45177 63.2634 7.25233 57.074 7.64996 54.822C7.84411 53.7224 8.74681 50.4708 10.0488 46.1624C11.3459 41.87 13.028 36.5649 14.7671 31.3834C16.5067 26.2004 18.301 21.1482 19.8226 17.3583C20.5842 15.4616 21.2729 13.8927 21.8487 12.7846C22.1375 12.229 22.3902 11.8044 22.602 11.516C22.7082 11.3715 22.795 11.2738 22.8616 11.2133C22.897 11.1812 22.9187 11.1668 22.9271 11.1616C34.3808 8.59561 44.3617 10.6665 49.6691 11.7677C51.001 12.0441 52.0386 12.2594 52.7312 12.325L87.5271 10.9914ZM84.9188 78.4679C84.9195 78.4675 84.9184 78.4685 84.9148 78.4707C84.917 78.4691 84.9184 78.4682 84.9188 78.4679Z" fill="#873719" fill-opacity="0.72" stroke="black"/>
<path d="M60.8427 76.0029C69.4042 74.8256 78.8391 73.4629 84.3331 72.6621C84.3707 72.9644 84.4063 73.2577 84.4385 73.5414C78.9102 74.3447 69.4429 75.7129 60.8445 76.8942C56.4187 77.5022 52.2249 78.0605 48.9177 78.4667C45.5922 78.8751 43.2046 79.1241 42.3595 79.1241H42.3594H42.3594H42.3594H42.3593H42.3593H42.3593H42.3592H42.3592H42.3592H42.3591H42.3591H42.3591H42.359H42.359H42.359H42.3589H42.3589H42.3589H42.3588H42.3588H42.3588H42.3588H42.3587H42.3587H42.3586H42.3586H42.3586H42.3585H42.3585H42.3585H42.3584H42.3584H42.3583H42.3583H42.3582H42.3582H42.3581H42.3581H42.358H42.358H42.3579H42.3579H42.3578H42.3578H42.3577H42.3577H42.3576H42.3576H42.3575H42.3575H42.3574H42.3574H42.3573H42.3573H42.3572H42.3572H42.3571H42.3571H42.357H42.357H42.3569H42.3569H42.3568H42.3568H42.3568H42.3567H42.3567H42.3566H42.3566H42.3565H42.3565H42.3565H42.3564H42.3564H42.3563H42.3563H42.3563H42.3562H42.3562H42.3562H42.3561H42.3561H42.356H42.356H42.356H42.3559H42.3559H42.3559H42.3558H42.3558H42.3558H42.3557H42.3557H42.3557H42.3556H42.3556H42.3556H42.3555H42.3555H42.3555H42.3554H42.3554H42.3554H42.3553H42.3553H42.3553H42.3552H42.3552H42.3551H42.3551H42.3551H42.355H42.355H42.355H42.3549H42.3549H42.3549H42.3548H42.3548H42.3548H42.3547H42.3547H42.3547H42.3546H42.3546H42.3546H42.3545C41.8184 79.1223 39.8873 78.9241 37.0747 78.5962C34.2812 78.2705 30.6608 77.8222 26.7846 77.3309C19.2537 76.3762 10.762 75.2592 5.50449 74.5625C5.51844 74.276 5.53469 73.9805 5.55281 73.6782C12.4916 74.5958 21.0617 75.7165 28.1948 76.6168C31.8527 77.0785 35.134 77.4824 37.6239 77.7713C40.0936 78.0579 41.8271 78.2367 42.3531 78.2383H42.3546H42.3603C43.2431 78.2383 45.6779 77.9785 48.9514 77.5744C52.2439 77.1681 56.4281 76.61 60.8427 76.0029Z" fill="#873719" fill-opacity="0.72" stroke="black"/>
<path d="M6.36585 64.6283C6.39659 64.3339 6.42947 64.0415 6.46313 63.7498C13.3908 64.6667 21.7546 65.7584 28.674 66.6292C32.2177 67.0751 35.3839 67.4633 37.7847 67.7405C40.1655 68.0153 41.8353 68.1862 42.3505 68.1878H42.352H42.3577C43.2071 68.1878 45.4882 67.9473 48.5645 67.5704C51.6591 67.1911 55.6003 66.6681 59.802 66.0924C67.9715 64.9732 77.1321 63.6543 82.9829 62.805C83.0252 63.096 83.0675 63.3866 83.11 63.6761C77.2365 64.5314 68.0485 65.8561 59.8406 66.9795C55.6191 67.5573 51.6587 68.0816 48.5424 68.4613C45.4085 68.8432 43.1686 69.0736 42.3577 69.0736H42.3577H42.3576H42.3576H42.3576H42.3575H42.3575H42.3575H42.3574H42.3574H42.3574H42.3573H42.3573H42.3573H42.3572H42.3572H42.3572H42.3571H42.3571H42.3571H42.3571H42.357H42.357H42.357H42.3569H42.3569H42.3569H42.3568H42.3568H42.3568H42.3567H42.3567H42.3566H42.3566H42.3565H42.3565H42.3564H42.3563H42.3563H42.3562H42.3562H42.3561H42.3561H42.356H42.356H42.3559H42.3559H42.3558H42.3558H42.3557H42.3557H42.3556H42.3556H42.3555H42.3555H42.3554H42.3554H42.3553H42.3553H42.3552H42.3552H42.3551H42.3551H42.3551H42.355H42.355H42.3549H42.3549H42.3548H42.3548H42.3548H42.3547H42.3547H42.3546H42.3546H42.3546H42.3545H42.3545H42.3545H42.3544H42.3544H42.3543H42.3543H42.3543H42.3542H42.3542H42.3542H42.3541H42.3541H42.3541H42.354H42.354H42.354H42.3539H42.3539H42.3539H42.3538H42.3538H42.3538H42.3537H42.3537H42.3537H42.3536H42.3536H42.3536H42.3535H42.3535H42.3534H42.3534H42.3534H42.3533H42.3533H42.3533H42.3532H42.3532H42.3531H42.3531H42.3531H42.3531H42.353H42.353H42.353H42.3529H42.3529H42.3529H42.3528H42.3528H42.3528H42.3527H42.3527C41.8317 69.072 39.9867 68.8841 37.2887 68.5708C34.6097 68.2597 31.1318 67.8303 27.383 67.3562C20.1032 66.4355 11.8069 65.3466 6.36585 64.6283Z" fill="#873719" fill-opacity="0.72" stroke="black"/>
<path d="M59.1499 70.047C67.2454 68.9421 76.6336 67.596 83.5226 66.5909C83.6545 67.5372 83.782 68.454 83.9002 69.3342C78.175 70.1681 68.827 71.5168 60.4042 72.6702C56.0704 73.2636 51.9834 73.8051 48.7615 74.1982C45.5219 74.5934 43.1974 74.8331 42.358 74.8331H42.3579H42.3579H42.3579H42.3578H42.3578H42.3578H42.3577H42.3577H42.3577H42.3576H42.3576H42.3576H42.3575H42.3575H42.3575H42.3574H42.3574H42.3574H42.3574H42.3573H42.3573H42.3573H42.3572H42.3572H42.3571H42.3571H42.3571H42.357H42.357H42.357H42.3569H42.3569H42.3568H42.3568H42.3567H42.3567H42.3566H42.3566H42.3565H42.3565H42.3564H42.3564H42.3563H42.3563H42.3562H42.3562H42.3561H42.3561H42.356H42.356H42.3559H42.3559H42.3558H42.3558H42.3557H42.3557H42.3556H42.3556H42.3555H42.3555H42.3554H42.3554H42.3554H42.3553H42.3553H42.3552H42.3552H42.3551H42.3551H42.3551H42.355H42.355H42.3549H42.3549H42.3549H42.3548H42.3548H42.3547H42.3547H42.3547H42.3546H42.3546H42.3546H42.3545H42.3545H42.3544H42.3544H42.3544H42.3543H42.3543H42.3543H42.3542H42.3542H42.3542H42.3541H42.3541H42.3541H42.3541H42.354H42.354H42.354H42.3539H42.3539H42.3538H42.3538H42.3538H42.3537H42.3537H42.3536H42.3536H42.3536H42.3535H42.3535H42.3535H42.3534H42.3534H42.3534H42.3533H42.3533H42.3533H42.3532H42.3532H42.3532H42.3531C41.8064 74.8314 39.9145 74.6394 37.1613 74.32C34.4269 74.0028 30.8845 73.5654 27.0739 73.0831C19.6705 72.146 11.2595 71.0399 5.80431 70.3179C5.88199 69.4138 5.96582 68.4864 6.05611 67.5559C13.5848 68.557 22.0939 69.6671 28.9879 70.5346C32.5132 70.9782 35.6173 71.3585 37.9524 71.6283C40.2671 71.8958 41.8678 72.06 42.3498 72.0616H42.3515H42.3515H42.3515H42.3516H42.3516H42.3516H42.3517H42.3517H42.3517H42.3518H42.3518H42.3518H42.3519H42.3519H42.3519H42.352H42.352H42.352H42.3521H42.3521H42.3521H42.3521H42.3522H42.3522H42.3522H42.3523H42.3523H42.3523H42.3524H42.3524H42.3525H42.3525H42.3525H42.3526H42.3527H42.3527H42.3528H42.3528H42.3529H42.3529H42.353H42.353H42.3531H42.3531H42.3532H42.3533H42.3533H42.3534H42.3534H42.3535H42.3535H42.3536H42.3536H42.3536H42.3537H42.3537H42.3538H42.3538H42.3539H42.3539H42.354H42.354H42.3541H42.3541H42.3542H42.3542H42.3542H42.3543H42.3543H42.3544H42.3544H42.3544H42.3545H42.3545H42.3546H42.3546H42.3546H42.3547H42.3547H42.3548H42.3548H42.3548H42.3549H42.3549H42.3549H42.355H42.355H42.355H42.3551H42.3551H42.3551H42.3552H42.3552H42.3552H42.3553H42.3553H42.3553H42.3554H42.3554H42.3554H42.3555H42.3555H42.3555H42.3556H42.3556H42.3556H42.3557H42.3557H42.3558H42.3558H42.3558H42.3559H42.3559H42.356H42.356H42.356H42.3561H42.3561H42.3561H42.3562H42.3562H42.3562H42.3562H42.3563H42.3563H42.3563H42.3564H42.3564H42.3564H42.3565H42.3565H42.3565H42.3566H42.3566H42.3566H42.3567H42.3567H42.3567H42.3568H42.3568H42.3568H42.3569H42.3569H42.3569H42.357H42.357H42.357H42.3571H42.3571H42.3571H42.3571C43.1461 72.0616 45.2923 71.8365 48.2346 71.4773C51.1954 71.1158 55.004 70.6129 59.1499 70.047Z" fill="#873719" fill-opacity="0.72" stroke="black"/>
<path d="M43.3432 53.67L43.3449 53.6701C44.7705 53.7151 50.6522 53.3057 57.9886 52.7283C65.1942 52.1612 73.8521 51.4277 81.2048 50.7865C81.3383 51.6745 81.4756 52.5914 81.6161 53.5303C69.7298 54.5734 47.6651 56.4486 43.547 56.4486C43.499 56.4486 43.4521 56.4471 43.4018 56.4455L43.3891 56.445C43.3478 56.4436 43.3004 56.442 43.2554 56.4418C42.199 56.402 36.3006 55.6825 29.1486 54.7715C22.2263 53.8898 14.175 52.8349 8.33396 52.0643C8.54658 51.2825 8.80245 50.3791 9.09465 49.372C15.6541 50.2352 23.655 51.2798 30.2834 52.1228C37.0339 52.9813 42.4085 53.6373 43.3432 53.67Z" fill="#873719" fill-opacity="0.72" stroke="black"/>
<path d="M43.3222 37.1183C48.1074 37.1183 68.6832 35.3595 80.4728 34.3153C80.2709 35.3349 80.1052 36.2857 79.9807 37.1358C68.018 38.1957 48.1477 39.8898 43.3157 39.8898H43.3157H43.3157H43.3156H43.3156H43.3156H43.3156H43.3156H43.3156H43.3155H43.3155H43.3155H43.3155H43.3155H43.3154H43.3154H43.3154H43.3154H43.3154H43.3154H43.3153H43.3153H43.3153H43.3153H43.3153H43.3153H43.3152H43.3152H43.3152H43.3152H43.3151H43.3151H43.3151H43.3151H43.3151H43.315H43.315H43.315H43.315H43.3149H43.3149H43.3149H43.3148H43.3148H43.3148H43.3148H43.3148H43.3147H43.3147H43.3147H43.3147H43.3147H43.3146H43.3146H43.3146H43.3146H43.3146H43.3146H43.3145H43.3145H43.3145H43.3145H43.3145H43.3145H43.3144H43.3144H43.3144H43.3144H43.3144H43.3144H43.3144H43.3143H43.3143H43.3143H43.3143H43.3143H43.3142H43.3142H43.3142H43.3142H43.3142H43.3142H43.3141H43.3141H43.3141H43.3141H43.3141H43.314H43.314H43.314H43.314H43.314H43.314H43.3139H43.3139H43.3139H43.3139H43.3139H43.3138H43.3138H43.3138H43.3138H43.3138H43.3137H43.3137H43.3137H43.3137H43.3137H43.3136H43.3136H43.3136H43.3136H43.3136H43.3135H43.3135H43.3135H43.3135H43.3134H43.3134H43.3134H43.3134H43.3134H43.3133H43.3133H43.3133H43.3133H43.3132H43.3132H43.3132H43.3132H43.3132H43.3131H43.3131H43.3131H43.3131H43.313H43.313H43.313H43.313H43.313H43.3129H43.3129H43.3129H43.3129H43.3128H43.3128H43.3128H43.3128H43.3127H43.3127H43.3127H43.3127H43.3126H43.3126H43.3126H43.3126H43.3125H43.3125H43.3125H43.3125H43.3125H43.3124H43.3124H43.3124H43.3123H43.3123H43.3123H43.3123H43.3122H43.3122H43.3122H43.3122H43.3121H43.3121H43.3121H43.3121H43.312H43.312H43.312H43.312H43.3119H43.3119H43.3119H43.3119H43.3118H43.3118H43.3118H43.3118H43.3117H43.3117H43.3117H43.3116H43.3116H43.3116H43.3116H43.3115H43.3115H43.3115H43.3114H43.3114H43.3114H43.3114H43.3113H43.3113H43.3113H43.3113H43.3112H43.3112H43.3112H43.3111H43.3111H43.3111H43.3111H43.311H43.311H43.311H43.3109H43.3109H43.3109H43.3109H43.3108H43.3108H43.3108H43.3107H43.3107H43.3107H43.3106H43.3106H43.3106H43.3106H43.3105H43.3105H43.3105H43.3104H43.3104H43.3104H43.3104H43.3103H43.3103H43.3103H43.3102H43.3102H43.3102H43.3101H43.3101H43.3101H43.31H43.31H43.31H43.31H43.3099H43.3099H43.3099H43.3098H43.3098H43.3098H43.3097H43.3097H43.3097H43.3096H43.3096H43.3096H43.3095H43.3095H43.3095H43.3095H43.3094H43.3094H43.3094H43.3093H43.3093H43.3093H43.3092H43.3092H43.3092H43.3091H43.3091H43.3091H43.309H43.309H43.309H43.3089H43.3089H43.3089H43.3088H43.3088H43.3088H43.3087H43.3087H43.3087H43.3086H43.3086H43.3086H43.3085H43.3085H43.3085H43.3084H43.3084H43.3084H43.3083H43.3083H43.3083H43.3082H43.3082H43.3082H43.3081H43.3081H43.3081H43.308H43.308H43.308H43.3079H43.3079H43.3079H43.3078H43.3078H43.3078H43.3077H43.3077H43.3077H43.3076H43.3076H43.3076H43.3075H43.3075H43.3074H43.3074H43.3074H43.3073H43.3073H43.3073H43.3072H43.3072H43.3072H43.3071H43.3071H43.3071H43.307H43.307H43.307H43.3069H43.3069H43.3069H43.3068H43.3068H43.3067H43.3067H43.3067H43.3066H43.3066H43.3066H43.3065H43.3065H43.3065H43.3064H43.3064H43.3064H43.3063H43.3063H43.3062H43.3062H43.3062H43.3061H43.3061H43.3061H43.306H43.306H43.306H43.3059H43.3059H43.3058H43.3058H43.3058H43.3057H43.3057H43.3057H43.3056H43.3056H43.3056H43.3055H43.3055H43.3054H43.3054H43.3054H43.3053H43.3053H43.3053H43.3052H43.3052H43.3051H43.3051H43.3051H43.305H43.305H43.305H43.3049H43.3049H43.3049H43.3048H43.3048H43.3047H43.3047H43.3047H43.3046H43.3046H43.3046H43.3045H43.3045H43.3044H43.3044C42.8632 39.8881 41.4958 39.7553 39.4566 39.5232C37.4335 39.2929 34.7861 38.9695 31.8173 38.5957C26.0733 37.8723 19.1317 36.9607 13.193 36.1708C13.216 36.1004 13.2389 36.03 13.2619 35.9595C13.5287 35.1413 13.7979 34.316 14.07 33.4918C20.8423 34.3944 27.6968 35.2911 33.073 35.9667C35.8152 36.3112 38.1742 36.5985 39.9419 36.7996C41.6907 36.9986 42.9002 37.1183 43.31 37.1183H43.31H43.31H43.3101H43.3101H43.3101H43.3101H43.3101H43.3101H43.3102H43.3102H43.3102H43.3102H43.3102H43.3103H43.3103H43.3103H43.3103H43.3103H43.3103H43.3104H43.3104H43.3104H43.3104H43.3104H43.3105H43.3105H43.3105H43.3105H43.3105H43.3106H43.3106H43.3106H43.3106H43.3107H43.3107H43.3107H43.3107H43.3108H43.3108H43.3108H43.3108H43.3109H43.3109H43.3109H43.3109H43.3109H43.311H43.311H43.311H43.311H43.3111H43.3111H43.3111H43.3111H43.3111H43.3111H43.3111H43.3112H43.3112H43.3112H43.3112H43.3112H43.3112H43.3113H43.3113H43.3113H43.3113H43.3113H43.3113H43.3114H43.3114H43.3114H43.3114H43.3114H43.3114H43.3115H43.3115H43.3115H43.3115H43.3115H43.3116H43.3116H43.3116H43.3116H43.3116H43.3116H43.3117H43.3117H43.3117H43.3117H43.3117H43.3118H43.3118H43.3118H43.3118H43.3118H43.3119H43.3119H43.3119H43.3119H43.3119H43.312H43.312H43.312H43.312H43.312H43.3121H43.3121H43.3121H43.3121H43.3121H43.3122H43.3122H43.3122H43.3122H43.3122H43.3123H43.3123H43.3123H43.3123H43.3123H43.3124H43.3124H43.3124H43.3124H43.3125H43.3125H43.3125H43.3125H43.3125H43.3126H43.3126H43.3126H43.3126H43.3127H43.3127H43.3127H43.3127H43.3127H43.3128H43.3128H43.3128H43.3128H43.3129H43.3129H43.3129H43.3129H43.313H43.313H43.313H43.313H43.3131H43.3131H43.3131H43.3131H43.3132H43.3132H43.3132H43.3132H43.3133H43.3133H43.3133H43.3133H43.3134H43.3134H43.3134H43.3134H43.3135H43.3135H43.3135H43.3135H43.3136H43.3136H43.3136H43.3136H43.3137H43.3137H43.3137H43.3137H43.3138H43.3138H43.3138H43.3138H43.3139H43.3139H43.3139H43.314H43.314H43.314H43.314H43.3141H43.3141H43.3141H43.3141H43.3142H43.3142H43.3142H43.3143H43.3143H43.3143H43.3143H43.3144H43.3144H43.3144H43.3145H43.3145H43.3145H43.3145H43.3146H43.3146H43.3146H43.3146H43.3147H43.3147H43.3147H43.3148H43.3148H43.3148H43.3149H43.3149H43.3149H43.3149H43.315H43.315H43.315H43.3151H43.3151H43.3151H43.3151H43.3152H43.3152H43.3152H43.3153H43.3153H43.3153H43.3154H43.3154H43.3154H43.3154H43.3155H43.3155H43.3155H43.3156H43.3156H43.3156H43.3157H43.3157H43.3157H43.3158H43.3158H43.3158H43.3158H43.3159H43.3159H43.3159H43.316H43.316H43.316H43.3161H43.3161H43.3161H43.3162H43.3162H43.3162H43.3163H43.3163H43.3163H43.3164H43.3164H43.3164H43.3164H43.3165H43.3165H43.3165H43.3166H43.3166H43.3166H43.3167H43.3167H43.3167H43.3168H43.3168H43.3168H43.3169H43.3169H43.3169H43.317H43.317H43.317H43.3171H43.3171H43.3171H43.3172H43.3172H43.3172H43.3173H43.3173H43.3173H43.3174H43.3174H43.3174H43.3175H43.3175H43.3175H43.3176H43.3176H43.3176H43.3177H43.3177H43.3177H43.3178H43.3178H43.3178H43.3179H43.3179H43.3179H43.318H43.318H43.3181H43.3181H43.3181H43.3182H43.3182H43.3182H43.3183H43.3183H43.3183H43.3184H43.3184H43.3184H43.3185H43.3185H43.3185H43.3186H43.3186H43.3186H43.3187H43.3187H43.3187H43.3188H43.3188H43.3189H43.3189H43.3189H43.319H43.319H43.319H43.3191H43.3191H43.3191H43.3192H43.3192H43.3192H43.3193H43.3193H43.3194H43.3194H43.3194H43.3195H43.3195H43.3195H43.3196H43.3196H43.3196H43.3197H43.3197H43.3198H43.3198H43.3198H43.3199H43.3199H43.3199H43.32H43.32H43.32H43.3201H43.3201H43.3202H43.3202H43.3202H43.3203H43.3203H43.3203H43.3204H43.3204H43.3204H43.3205H43.3205H43.3206H43.3206H43.3206H43.3207H43.3207H43.3207H43.3208H43.3208H43.3209H43.3209H43.3209H43.321H43.321H43.321H43.3211H43.3211H43.3212H43.3212H43.3212H43.3213H43.3213H43.3213H43.3214H43.3214H43.3215H43.3215H43.3215H43.3216H43.3216H43.3216H43.3217H43.3217H43.3218H43.3218H43.3218H43.3219H43.3219H43.3219H43.322H43.322H43.3221H43.3221H43.3221H43.3222Z" fill="#873719" fill-opacity="0.72" stroke="black"/>
<path d="M43.4928 47.2543L43.493 47.2543C44.8858 47.2994 50.5263 46.9105 57.6163 46.3552C64.5778 45.8099 72.9852 45.0998 80.2748 44.4657C80.3921 45.2974 80.5279 46.2172 80.6742 47.208C68.5713 48.2653 47.6848 50.0261 43.6898 50.0261H43.3973C42.3928 49.9892 36.9721 49.3308 30.2527 48.4765C23.7508 47.6499 16.0775 46.6458 10.1398 45.8643C10.3986 45.0044 10.6738 44.1055 10.9647 43.1755C17.4631 44.0307 25.0621 45.0234 31.2902 45.8151C37.6297 46.6209 42.5964 47.225 43.4928 47.2543Z" fill="#873719" fill-opacity="0.72" stroke="black"/>
<path d="M43.5683 43.5005L43.5706 43.5006C45.0714 43.5456 51.1698 43.1157 58.3956 42.5461C65.4512 41.99 73.6314 41.2961 79.7936 40.7637C79.8195 41.012 79.853 41.3066 79.8938 41.6424C67.702 42.7032 47.6808 44.3925 43.8262 44.3925C43.7772 44.3925 43.7311 44.3912 43.6824 44.3897L43.6705 44.3894C43.6299 44.3881 43.584 44.3868 43.5394 44.3866C42.5897 44.3534 37.5686 43.7469 31.2269 42.9425C25.0944 42.1647 17.7713 41.2081 11.8262 40.4265C11.9159 40.141 12.0069 39.8541 12.0993 39.5657C18.0539 40.348 25.3604 41.3023 31.4449 42.0749C37.6496 42.8628 42.6304 43.4682 43.5683 43.5005Z" fill="#873719" fill-opacity="0.72" stroke="black"/>
<path d="M11.0441 58.4075C11.0441 59.0362 10.56 59.5104 10.0064 59.5104C9.45289 59.5104 8.96875 59.0362 8.96875 58.4075C8.96875 57.779 9.45273 57.3048 10.0062 57.3047C10.5605 57.3054 11.0441 57.7794 11.0441 58.4075Z" fill="#873719" fill-opacity="0.72" stroke="black"/>
<path d="M19.1066 59.6263C19.1066 60.2549 18.6225 60.7291 18.0689 60.7291C17.5154 60.7291 17.0312 60.2549 17.0312 59.6263C17.0312 58.9976 17.5154 58.5234 18.0689 58.5234C18.6225 58.5234 19.1066 58.9976 19.1066 59.6263Z" fill="#873719" fill-opacity="0.72" stroke="black"/>
<path d="M28.3176 61.0208C28.3176 61.6497 27.8336 62.1237 27.2799 62.1237C26.7261 62.1237 26.2422 61.6497 26.2422 61.0208C26.2422 60.392 26.7261 59.918 27.2799 59.918C27.8336 59.918 28.3176 60.392 28.3176 61.0208Z" fill="#873719" fill-opacity="0.72" stroke="black"/>
<path d="M37.7238 62.056C37.7238 62.6846 37.2397 63.1588 36.6861 63.1588C36.1326 63.1588 35.6484 62.6846 35.6484 62.056C35.6484 61.4274 36.1324 60.9533 36.6859 60.9531C37.2408 60.9538 37.7238 61.4277 37.7238 62.056Z" fill="#873719" fill-opacity="0.72" stroke="black"/>
<path d="M46.5519 62.4388C46.5519 63.0674 46.0678 63.5417 45.5142 63.5417C44.9607 63.5417 44.4766 63.0674 44.4766 62.4388C44.4766 61.8101 44.9607 61.3359 45.5142 61.3359C46.0684 61.3359 46.5519 61.81 46.5519 62.4388Z" fill="#873719" fill-opacity="0.72" stroke="black"/>
<path d="M55.5441 61.6731C55.5441 62.3018 55.06 62.776 54.5064 62.776C53.9529 62.776 53.4688 62.3018 53.4688 61.6731C53.4688 61.0445 53.9529 60.5703 54.5064 60.5703C55.0602 60.5703 55.5441 61.0438 55.5441 61.6731Z" fill="#873719" fill-opacity="0.72" stroke="black"/>
<path d="M64.0676 60.8372C64.0676 61.4659 63.5834 61.9401 63.0299 61.9401C62.4763 61.9401 61.9922 61.4659 61.9922 60.8372C61.9922 60.2087 62.4762 59.7345 63.0296 59.7344C63.5845 59.7351 64.0676 60.2089 64.0676 60.8372Z" fill="#873719" fill-opacity="0.72" stroke="black"/>
<path d="M72.5285 59.8177C72.5285 60.4463 72.0444 60.9205 71.4908 60.9205C70.9373 60.9205 70.4531 60.4463 70.4531 59.8177C70.4531 59.189 70.9372 58.7148 71.4908 58.7148C72.0444 58.7148 72.5285 59.189 72.5285 59.8177Z" fill="#873719" fill-opacity="0.72" stroke="black"/>
<path d="M80.5285 58.7903C80.5285 59.419 80.0444 59.8932 79.4908 59.8932C78.9373 59.8932 78.4531 59.419 78.4531 58.7903C78.4531 58.1617 78.9373 57.6875 79.4908 57.6875C80.045 57.6875 80.5285 58.1615 80.5285 58.7903Z" fill="#873719" fill-opacity="0.72" stroke="black"/>
</svg>
